<?xml version="1.0" standalone="no"?>
<!DOCTYPE svg PUBLIC "-//W3C//DTD SVG 20010904//EN"
 "http://www.w3.org/TR/2001/REC-SVG-20010904/DTD/svg10.dtd">
<svg version="1.0" xmlns="http://www.w3.org/2000/svg"
 width="48.000000pt" height="48.000000pt" viewBox="0 0 48.000000 48.000000"
 preserveAspectRatio="xMidYMid meet">
<metadata>
Created by potrace 1.16, written by Peter Selinger 2001-2019
</metadata>
<g transform="translate(0.000000,48.000000) scale(0.100000,-0.100000)"
fill="#000000" stroke="none">
<path d="M337 383 l-47 -48 -102 27 c-95 25 -104 26 -120 11 -10 -9 -18 -20
-18 -24 0 -4 36 -27 81 -50 l80 -42 -27 -28 c-19 -20 -38 -29 -60 -29 -17 0
-38 -7 -45 -16 -12 -15 -11 -18 5 -28 25 -14 58 -47 72 -72 10 -17 13 -17 28
-4 12 9 16 24 14 42 -3 21 3 35 26 57 l31 30 44 -80 43 -81 22 21 21 22 -26
99 -26 99 49 48 c32 31 48 55 46 68 -5 37 -40 28 -91 -22z"/>
</g>
</svg>
